<!DOCTYPE svg PUBLIC "-//W3C//DTD SVG 1.1//EN" "http://www.w3.org/Graphics/SVG/1.1/DTD/svg11.dtd">

<!-- Uploaded to: SVG Repo, www.svgrepo.com, Transformed by: SVG Repo Mixer Tools -->
<svg version="1.1" id="Layer_1" xmlns="http://www.w3.org/2000/svg" xmlns:xlink="http://www.w3.org/1999/xlink" viewBox="0 0 512 512" xml:space="preserve" width="64px" height="64px" fill="#000000">

<g id="SVGRepo_bgCarrier" stroke-width="0"/>

<g id="SVGRepo_tracerCarrier" stroke-linecap="round" stroke-linejoin="round"/>

<g id="SVGRepo_iconCarrier"> <path style="fill:#f2b5dc;" d="M485.517,0H26.483C11.857,0,0,11.857,0,26.483v211.862c0,14.626,11.857,26.483,26.483,26.483h459.034 c14.626,0,26.483-11.857,26.483-26.483V26.483C512,11.857,500.143,0,485.517,0z"/> <path style="fill:#C84146;" d="M185.379,203.034c-19.47,0-35.31,15.84-35.31,35.31v26.483h70.621v-26.483 C220.69,218.874,204.85,203.034,185.379,203.034z"/> <g> <path style="fill:#FFFFFF;" d="M149.474,122.146c8.545-8.756,13.836-20.702,13.836-33.87c0-26.767-21.784-48.552-48.552-48.552 H52.966c-7.31,0-13.241,5.931-13.241,13.241v70.621v88.276c0,7.31,5.931,13.241,13.241,13.241h61.793 c31.638,0,57.379-25.741,57.379-57.379C172.137,149.14,163.215,132.64,149.474,122.146z M66.206,66.207h48.552 c12.172,0,22.069,9.897,22.069,22.069s-9.897,22.069-22.069,22.069H66.206V66.207z M114.758,198.621H66.206v-61.793h48.552 c17.035,0,30.897,13.863,30.897,30.897S131.793,198.621,114.758,198.621z"/> <path style="fill:#FFFFFF;" d="M256,225.103c-36.509,0-66.207-29.698-66.207-66.207V52.966c0-7.31,5.931-13.241,13.241-13.241 s13.241,5.931,13.241,13.241v105.931c0,21.906,17.818,39.724,39.724,39.724s39.724-17.818,39.724-39.724V52.966 c0-7.31,5.931-13.241,13.241-13.241s13.241,5.931,13.241,13.241v105.931C322.207,195.405,292.509,225.103,256,225.103z"/> <path style="fill:#FFFFFF;" d="M484.82,42.517c-5.768-4.491-14.103-3.457-18.578,2.319l-51.345,66.008l-51.345-66.008 c-4.483-5.775-12.819-6.81-18.578-2.319c-5.775,4.483-6.81,12.802-2.319,18.578l59,75.858v74.91c0,7.31,5.931,13.241,13.241,13.241 c7.31,0,13.241-5.931,13.241-13.241v-74.91l59-75.858C491.63,55.319,490.595,47,484.82,42.517z"/> </g> <path style="fill:#F0C087;" d="M291.31,344.276c-9.75,0-17.655,7.904-17.655,17.655v-8.828c0-9.751-7.905-17.655-17.655-17.655 s-17.655,7.904-17.655,17.655v-8.828c0-9.751-7.905-17.655-17.655-17.655c-9.75,0-17.655,7.904-17.655,17.655V238.345 c0-9.751-7.905-17.655-17.655-17.655c-9.75,0-17.655,7.904-17.655,17.655v247.172h141.241V361.931 C308.966,352.18,301.06,344.276,291.31,344.276z"/> <rect x="167.724" y="459.034" style="fill:#E6AF78;" width="141.241" height="26.483"/> <path style="fill:#E4EAF8;" d="M308.966,512H167.724c-4.875,0-8.828-3.953-8.828-8.828v-17.655c0-4.875,3.953-8.828,8.828-8.828 h141.241c4.875,0,8.828,3.953,8.828,8.828v17.655C317.793,508.047,313.841,512,308.966,512z"/> </g>

</svg>