<?xml version="1.0" encoding="UTF-8"?>
<svg xmlns="http://www.w3.org/2000/svg" xmlns:xlink="http://www.w3.org/1999/xlink" width="584px" height="584px" viewBox="0 0 584 584" version="1.1">
<g id="surface1">
<path style=" stroke:none;fill-rule:nonzero;fill:rgb(100%,61.960787%,79.215688%);fill-opacity:1;" d="M 528.710938 572.367188 L 55.289062 572.367188 L 55.289062 187.476562 L 292 55.902344 L 528.710938 187.476562 Z M 528.710938 572.367188 "/>
<path style=" stroke:none;fill-rule:nonzero;fill:rgb(100%,91.37255%,48.627451%);fill-opacity:1;" d="M 292 11.632812 L 55.289062 143.207031 L 55.289062 187.476562 L 292 55.902344 L 528.710938 187.476562 L 528.710938 143.207031 Z M 292 11.632812 "/>
<path style=" stroke:none;fill-rule:nonzero;fill:rgb(100%,96.470588%,80.000001%);fill-opacity:1;" d="M 478.910156 316.636719 L 478.910156 572.367188 L 306.757812 572.367188 L 306.757812 316.636719 C 306.757812 269.097656 345.292969 230.558594 392.832031 230.558594 C 440.375 230.558594 478.910156 269.09375 478.910156 316.636719 Z M 478.910156 316.636719 "/>
<path style=" stroke:none;fill-rule:nonzero;fill:rgb(100%,91.37255%,48.627451%);fill-opacity:1;" d="M 258.796875 312.289062 C 258.796875 269.164062 223.839844 234.203125 180.714844 234.203125 C 137.589844 234.203125 102.628906 269.164062 102.628906 312.289062 C 102.628906 355.414062 137.589844 390.371094 180.714844 390.371094 C 223.839844 390.371094 258.796875 355.414062 258.796875 312.289062 Z M 258.796875 312.289062 "/>
<path style=" stroke:none;fill-rule:nonzero;fill:rgb(30.19608%,11.764706%,11.764706%);fill-opacity:1;" d="M 528.710938 584 C 535.136719 584 540.347656 578.789062 540.347656 572.367188 L 540.347656 143.207031 C 540.347656 138.984375 538.058594 135.09375 534.363281 133.042969 L 297.652344 1.464844 C 294.136719 -0.488281 289.863281 -0.488281 286.347656 1.464844 L 49.636719 133.039062 C 45.941406 135.09375 43.652344 138.984375 43.652344 143.207031 L 43.652344 572.367188 C 43.652344 578.789062 48.863281 584 55.289062 584 Z M 292 24.941406 L 517.078125 150.050781 L 517.078125 167.699219 L 297.652344 45.734375 C 295.894531 44.757812 293.945312 44.269531 292 44.269531 C 290.054688 44.269531 288.105469 44.757812 286.347656 45.734375 L 66.921875 167.703125 L 66.921875 150.050781 Z M 318.390625 560.734375 L 318.390625 316.636719 C 318.390625 275.585938 351.785156 242.191406 392.835938 242.191406 C 433.882812 242.191406 467.277344 275.585938 467.277344 316.636719 L 467.277344 560.734375 Z M 517.078125 560.734375 L 490.546875 560.734375 L 490.546875 316.636719 C 490.546875 262.757812 446.710938 218.925781 392.835938 218.925781 C 338.957031 218.925781 295.125 262.757812 295.125 316.636719 L 295.125 560.734375 L 66.921875 560.734375 L 66.921875 477.019531 L 193.625 477.019531 C 200.050781 477.019531 205.257812 471.808594 205.257812 465.386719 C 205.257812 458.960938 200.050781 453.753906 193.625 453.753906 L 66.921875 453.753906 L 66.921875 194.320312 L 292 69.210938 L 517.078125 194.320312 Z M 517.078125 560.734375 "/>
<path style=" stroke:none;fill-rule:nonzero;fill:rgb(30.19608%,11.764706%,11.764706%);fill-opacity:1;" d="M 180.714844 222.570312 C 131.242188 222.570312 90.996094 262.816406 90.996094 312.289062 C 90.996094 361.757812 131.242188 402.007812 180.714844 402.007812 C 230.183594 402.007812 270.433594 361.757812 270.433594 312.289062 C 270.433594 262.816406 230.183594 222.570312 180.714844 222.570312 Z M 246.234375 301.273438 L 191.730469 301.273438 L 191.730469 246.769531 C 219.5625 251.433594 241.570312 273.445312 246.234375 301.273438 Z M 168.46875 246.988281 L 168.46875 301.269531 L 115.195312 301.269531 C 119.789062 273.855469 141.222656 252.089844 168.46875 246.988281 Z M 115.414062 324.539062 L 168.464844 324.539062 L 168.464844 377.589844 C 141.632812 372.566406 120.4375 351.375 115.414062 324.539062 Z M 191.734375 377.808594 L 191.734375 324.539062 L 246.015625 324.539062 C 240.914062 351.78125 219.148438 373.214844 191.734375 377.808594 Z M 191.734375 377.808594 "/>
<path style=" stroke:none;fill-rule:nonzero;fill:rgb(30.19608%,11.764706%,11.764706%);fill-opacity:1;" d="M 250.191406 453.75 L 242.8125 453.75 C 236.390625 453.75 231.179688 458.960938 231.179688 465.382812 C 231.179688 471.808594 236.390625 477.015625 242.8125 477.015625 L 250.191406 477.015625 C 256.617188 477.015625 261.824219 471.808594 261.824219 465.382812 C 261.824219 458.960938 256.617188 453.75 250.191406 453.75 Z M 250.191406 453.75 "/>
</g>
</svg>
