<?xml version="1.0" encoding="UTF-8"?>
<svg xmlns="http://www.w3.org/2000/svg" xmlns:xlink="http://www.w3.org/1999/xlink" width="107px" height="24px" viewBox="0 0 107 24" version="1.1">
<g id="surface1">
<path style=" stroke:none;fill-rule:nonzero;fill:rgb(90.588236%,25.098041%,41.568628%);fill-opacity:1;" d="M 85.777344 20.21875 C 94.804688 18.371094 99.851562 15.703125 99.851562 12.738281 C 99.851562 7.164062 82.023438 2.644531 53.5 2.644531 C 24.976562 2.644531 7.148438 7.164062 7.148438 12.738281 C 7.148438 18.3125 24.976562 22.828125 53.5 22.828125 C 59.929688 22.828125 65.804688 22.597656 71.0625 22.175781 L 76.054688 23.777344 C 76.480469 23.914062 77.246094 23.976562 77.960938 23.929688 L 91.761719 23.039062 C 92.296875 23.003906 92.730469 22.914062 92.921875 22.792969 C 93.105469 22.675781 93.03125 22.546875 92.707031 22.441406 Z M 53.5 17.980469 C 38.6875 17.980469 29.417969 15.632812 29.417969 12.738281 C 29.417969 9.84375 38.679688 7.496094 53.5 7.496094 C 68.320312 7.496094 77.582031 9.84375 77.582031 12.738281 C 77.582031 13.984375 75.851562 15.128906 72.71875 16.03125 L 66.648438 14.082031 C 66.222656 13.945312 65.457031 13.886719 64.742188 13.929688 L 50.933594 14.820312 C 50.398438 14.859375 49.964844 14.949219 49.773438 15.066406 C 49.585938 15.1875 49.664062 15.316406 49.988281 15.421875 L 57.738281 17.90625 C 56.382812 17.953125 54.980469 17.980469 53.5 17.980469 Z M 53.5 17.980469 "/>
</g>
</svg>
